<svg id="visual" viewBox="0 0 1900 1080" width="1900" height="1080" xmlns="http://www.w3.org/2000/svg" xmlns:xlink="http://www.w3.org/1999/xlink" version="1.1"><rect x="0" y="0" width="1900" height="1080" fill="#9197f4"></rect><path d="M0 828L63.3 813C126.7 798 253.3 768 380 770.8C506.7 773.7 633.3 809.3 760 834.3C886.7 859.3 1013.3 873.7 1140 864.5C1266.7 855.3 1393.3 822.7 1520 815.3C1646.7 808 1773.3 826 1836.7 835L1900 844L1900 1081L1836.7 1081C1773.3 1081 1646.7 1081 1520 1081C1393.3 1081 1266.7 1081 1140 1081C1013.3 1081 886.7 1081 760 1081C633.3 1081 506.7 1081 380 1081C253.3 1081 126.7 1081 63.3 1081L0 1081Z" fill="#FFFFFF" stroke-linecap="round" stroke-linejoin="miter"></path></svg>